<?xml version="1.0" encoding="UTF-8"?> <svg xmlns="http://www.w3.org/2000/svg" width="311" height="311" viewBox="0 0 311 311" fill="none"> <path d="M145.122 38.8753C150.689 33.6951 159.311 33.6951 164.878 38.8752L176.044 49.2661C179.812 52.7727 185.075 54.1799 190.091 53.0216L204.985 49.5821C212.405 47.8686 219.886 52.1866 222.113 59.4685L226.54 73.9386C228.05 78.8758 231.92 82.7367 236.86 84.2362L251.404 88.6504C258.712 90.8684 263.046 98.3744 261.315 105.813L257.904 120.465C256.73 125.509 258.153 130.806 261.695 134.583L272.01 145.58C277.242 151.159 277.242 159.841 272.01 165.42L261.695 176.417C258.153 180.194 256.73 185.491 257.904 190.535L261.315 205.187C263.046 212.626 258.712 220.132 251.404 222.35L236.86 226.764C231.92 228.263 228.05 232.124 226.54 237.061L222.113 251.532C219.886 258.813 212.405 263.131 204.985 261.418L190.091 257.978C185.075 256.82 179.812 258.227 176.044 261.734L164.878 272.125C159.311 277.305 150.689 277.305 145.122 272.125L133.956 261.734C130.188 258.227 124.925 256.82 119.909 257.978L105.015 261.418C97.5953 263.131 90.1143 258.813 87.8867 251.532L83.46 237.061C81.9496 232.124 78.0802 228.263 73.1397 226.764L58.5963 222.35C51.2885 220.132 46.9537 212.626 48.685 205.187L52.0957 190.535C53.2697 185.491 51.8473 180.194 48.3046 176.417L37.9897 165.42C32.7576 159.841 32.7576 151.159 37.9897 145.58L48.3046 134.583C51.8473 130.806 53.2697 125.509 52.0957 120.465L48.685 105.813C46.9537 98.3744 51.2885 90.8684 58.5963 88.6504L73.1397 84.2362C78.0802 82.7367 81.9496 78.8758 83.46 73.9386L87.8867 59.4685C90.1143 52.1866 97.5953 47.8686 105.015 49.5821L119.909 53.0216C124.925 54.1799 130.188 52.7727 133.956 49.2661L145.122 38.8753Z" stroke="#597CB4"></path> <path d="M176.229 39.8929C182.959 36.3064 191.317 38.5459 195.352 45.0169L203.41 57.9389C206.141 62.3199 210.875 65.053 216.035 65.2284L231.255 65.7457C238.877 66.0048 244.995 72.1232 245.254 79.7448L245.771 94.9644C245.947 100.124 248.68 104.858 253.061 107.59L265.983 115.648C272.454 119.683 274.693 128.041 271.107 134.771L263.945 148.21C261.517 152.767 261.517 158.233 263.945 162.79L271.107 176.229C274.693 182.959 272.454 191.317 265.983 195.352L253.061 203.41C248.68 206.142 245.947 210.876 245.771 216.036L245.254 231.255C244.995 238.877 238.877 244.995 231.255 245.254L216.035 245.772C210.875 245.947 206.141 248.68 203.41 253.061L195.352 265.983C191.317 272.454 182.959 274.694 176.229 271.107L162.789 263.945C158.233 261.517 152.767 261.517 148.21 263.945L134.771 271.107C128.041 274.694 119.683 272.454 115.648 265.983L107.59 253.061C104.858 248.68 100.124 245.947 94.9643 245.772L79.7447 245.254C72.1231 244.995 66.0046 238.877 65.7456 231.255L65.2283 216.036C65.0529 210.876 62.3198 206.142 57.9388 203.41L45.0168 195.352C38.5458 191.317 36.3063 182.959 39.8928 176.229L47.0546 162.79C49.4827 158.233 49.4827 152.767 47.0546 148.21L39.8928 134.771C36.3063 128.041 38.5458 119.683 45.0168 115.648L57.9388 107.59C62.3198 104.858 65.0529 100.124 65.2283 94.9644L65.7456 79.7448C66.0046 72.1232 72.1231 66.0048 79.7447 65.7457L94.9643 65.2284C100.124 65.053 104.858 62.3199 107.59 57.9389L115.648 45.0169C119.683 38.5459 128.041 36.3064 134.771 39.8929L148.21 47.0547C152.767 49.4829 158.233 49.4829 162.789 47.0547L176.229 39.8929Z" stroke="#597CB4"></path> </svg> 