<svg width="50" height="60" viewBox="0 0 397 397" fill="none" xmlns="http://www.w3.org/2000/svg">
<path d="M198.5 33.083C134.484 33.083 82.7083 84.8584 82.7083 148.875C82.7083 235.718 198.5 363.916 198.5 363.916C198.5 363.916 314.292 235.718 314.292 148.875C314.292 84.8584 262.516 33.083 198.5 33.083ZM198.5 190.229C187.532 190.229 177.014 185.872 169.258 178.116C161.503 170.361 157.146 159.842 157.146 148.875C157.146 137.907 161.503 127.388 169.258 119.633C177.014 111.877 187.532 107.521 198.5 107.521C209.468 107.521 219.986 111.877 227.742 119.633C235.497 127.388 239.854 137.907 239.854 148.875C239.854 159.842 235.497 170.361 227.742 178.116C219.986 185.872 209.468 190.229 198.5 190.229V190.229Z" fill="#2961BA"/>
<rect x="148.875" y="99.25" width="99.25" height="99.25" fill="#2961BA"/>
<line x1="96" y1="158.5" x2="292" y2="158.5" stroke="white"/>
<path d="M153.573 184V172.364H154.914V176.659H155.028C155.126 176.508 155.263 176.314 155.437 176.08C155.615 175.841 155.869 175.629 156.198 175.443C156.531 175.254 156.982 175.159 157.55 175.159C158.285 175.159 158.933 175.343 159.494 175.71C160.054 176.078 160.492 176.598 160.806 177.273C161.121 177.947 161.278 178.742 161.278 179.659C161.278 180.583 161.121 181.384 160.806 182.062C160.492 182.737 160.056 183.259 159.499 183.631C158.942 183.998 158.3 184.182 157.573 184.182C157.013 184.182 156.564 184.089 156.227 183.903C155.889 183.714 155.63 183.5 155.448 183.261C155.266 183.019 155.126 182.818 155.028 182.659H154.869V184H153.573ZM154.891 179.636C154.891 180.295 154.988 180.877 155.181 181.381C155.374 181.881 155.656 182.273 156.028 182.557C156.399 182.837 156.853 182.977 157.391 182.977C157.952 182.977 158.42 182.83 158.795 182.534C159.174 182.235 159.458 181.833 159.647 181.33C159.84 180.822 159.937 180.258 159.937 179.636C159.937 179.023 159.842 178.47 159.653 177.977C159.467 177.481 159.185 177.089 158.806 176.801C158.431 176.509 157.96 176.364 157.391 176.364C156.846 176.364 156.388 176.502 156.016 176.778C155.645 177.051 155.365 177.434 155.175 177.926C154.986 178.415 154.891 178.985 154.891 179.636ZM163.88 187.273C163.653 187.273 163.45 187.254 163.272 187.216C163.094 187.182 162.971 187.148 162.903 187.114L163.244 185.932C163.569 186.015 163.857 186.045 164.107 186.023C164.357 186 164.579 185.888 164.772 185.688C164.969 185.491 165.149 185.17 165.312 184.727L165.562 184.045L162.335 175.273H163.789L166.198 182.227H166.289L168.698 175.273H170.153L166.448 185.273C166.281 185.723 166.075 186.097 165.829 186.392C165.583 186.691 165.297 186.913 164.971 187.057C164.649 187.201 164.285 187.273 163.88 187.273ZM185.832 172.364V184H184.468L178.127 174.864H178.013V184H176.604V172.364H177.968L184.332 181.523H184.445V172.364H185.832ZM191.038 184.205C190.485 184.205 189.983 184.1 189.532 183.892C189.081 183.68 188.723 183.375 188.458 182.977C188.193 182.576 188.06 182.091 188.06 181.523C188.06 181.023 188.159 180.617 188.356 180.307C188.553 179.992 188.816 179.746 189.146 179.568C189.475 179.39 189.839 179.258 190.237 179.17C190.638 179.08 191.041 179.008 191.447 178.955C191.977 178.886 192.407 178.835 192.737 178.801C193.07 178.763 193.312 178.701 193.464 178.614C193.619 178.527 193.697 178.375 193.697 178.159V178.114C193.697 177.553 193.543 177.117 193.237 176.807C192.933 176.496 192.473 176.341 191.856 176.341C191.216 176.341 190.714 176.481 190.35 176.761C189.987 177.042 189.731 177.341 189.583 177.659L188.31 177.205C188.538 176.674 188.841 176.261 189.219 175.966C189.602 175.667 190.019 175.458 190.469 175.341C190.924 175.22 191.371 175.159 191.81 175.159C192.091 175.159 192.413 175.193 192.776 175.261C193.144 175.326 193.498 175.46 193.839 175.665C194.183 175.869 194.469 176.178 194.697 176.591C194.924 177.004 195.038 177.557 195.038 178.25V184H193.697V182.818H193.629C193.538 183.008 193.386 183.21 193.174 183.426C192.962 183.642 192.68 183.826 192.327 183.977C191.975 184.129 191.545 184.205 191.038 184.205ZM191.242 183C191.772 183 192.219 182.896 192.583 182.688C192.951 182.479 193.227 182.21 193.413 181.881C193.602 181.551 193.697 181.205 193.697 180.841V179.614C193.64 179.682 193.515 179.744 193.322 179.801C193.132 179.854 192.913 179.902 192.663 179.943C192.416 179.981 192.176 180.015 191.941 180.045C191.71 180.072 191.522 180.095 191.379 180.114C191.03 180.159 190.704 180.233 190.401 180.335C190.102 180.434 189.86 180.583 189.674 180.784C189.492 180.981 189.401 181.25 189.401 181.591C189.401 182.057 189.574 182.409 189.918 182.648C190.267 182.883 190.708 183 191.242 183ZM198.735 180.818L198.712 179.159H198.985L202.803 175.273H204.462L200.394 179.386H200.281L198.735 180.818ZM197.485 184V172.364H198.826V184H197.485ZM203.031 184L199.621 179.682L200.576 178.75L204.735 184H203.031ZM207.529 178.75V184H206.188V172.364H207.529V176.636H207.643C207.847 176.186 208.154 175.828 208.563 175.562C208.976 175.294 209.525 175.159 210.211 175.159C210.806 175.159 211.326 175.278 211.773 175.517C212.22 175.752 212.567 176.114 212.813 176.602C213.063 177.087 213.188 177.705 213.188 178.455V184H211.847V178.545C211.847 177.852 211.667 177.316 211.308 176.938C210.951 176.555 210.457 176.364 209.825 176.364C209.385 176.364 208.991 176.456 208.643 176.642C208.298 176.828 208.025 177.098 207.825 177.455C207.628 177.811 207.529 178.242 207.529 178.75ZM219.3 184.182C218.46 184.182 217.734 183.996 217.124 183.625C216.518 183.25 216.05 182.727 215.721 182.057C215.395 181.383 215.232 180.598 215.232 179.705C215.232 178.811 215.395 178.023 215.721 177.341C216.05 176.655 216.509 176.121 217.096 175.739C217.687 175.352 218.376 175.159 219.164 175.159C219.619 175.159 220.067 175.235 220.511 175.386C220.954 175.538 221.357 175.784 221.721 176.125C222.085 176.462 222.374 176.909 222.59 177.466C222.806 178.023 222.914 178.708 222.914 179.523V180.091H216.187V178.932H221.55C221.55 178.439 221.452 178 221.255 177.614C221.062 177.227 220.785 176.922 220.425 176.699C220.069 176.475 219.649 176.364 219.164 176.364C218.63 176.364 218.168 176.496 217.778 176.761C217.391 177.023 217.094 177.364 216.886 177.784C216.677 178.205 216.573 178.655 216.573 179.136V179.909C216.573 180.568 216.687 181.127 216.914 181.585C217.145 182.04 217.465 182.386 217.874 182.625C218.283 182.86 218.759 182.977 219.3 182.977C219.653 182.977 219.971 182.928 220.255 182.83C220.543 182.727 220.791 182.576 220.999 182.375C221.208 182.17 221.369 181.917 221.482 181.614L222.778 181.977C222.641 182.417 222.412 182.803 222.09 183.136C221.768 183.466 221.371 183.723 220.897 183.909C220.424 184.091 219.891 184.182 219.3 184.182ZM228.613 184.182C227.772 184.182 227.047 183.996 226.437 183.625C225.831 183.25 225.363 182.727 225.033 182.057C224.708 181.383 224.545 180.598 224.545 179.705C224.545 178.811 224.708 178.023 225.033 177.341C225.363 176.655 225.821 176.121 226.408 175.739C226.999 175.352 227.689 175.159 228.477 175.159C228.931 175.159 229.38 175.235 229.823 175.386C230.266 175.538 230.67 175.784 231.033 176.125C231.397 176.462 231.687 176.909 231.903 177.466C232.119 178.023 232.227 178.708 232.227 179.523V180.091H225.499V178.932H230.863C230.863 178.439 230.764 178 230.567 177.614C230.374 177.227 230.098 176.922 229.738 176.699C229.382 176.475 228.961 176.364 228.477 176.364C227.942 176.364 227.48 176.496 227.09 176.761C226.704 177.023 226.406 177.364 226.198 177.784C225.99 178.205 225.886 178.655 225.886 179.136V179.909C225.886 180.568 225.999 181.127 226.227 181.585C226.458 182.04 226.778 182.386 227.187 182.625C227.596 182.86 228.071 182.977 228.613 182.977C228.965 182.977 229.283 182.928 229.567 182.83C229.855 182.727 230.103 182.576 230.312 182.375C230.52 182.17 230.681 181.917 230.795 181.614L232.09 181.977C231.954 182.417 231.725 182.803 231.403 183.136C231.081 183.466 230.683 183.723 230.21 183.909C229.736 184.091 229.204 184.182 228.613 184.182ZM235.607 172.364V184H234.266V172.364H235.607Z" fill="white" fill-opacity="0.7"/>
<path d="M107.05 127.3C107.4 127.317 107.858 127.333 108.425 127.35C108.992 127.367 109.55 127.375 110.1 127.375C110.883 127.375 111.633 127.367 112.35 127.35C113.067 127.333 113.575 127.325 113.875 127.325C115.892 127.325 117.4 127.783 118.4 128.7C119.4 129.617 119.9 130.8 119.9 132.25C119.9 132.85 119.8 133.483 119.6 134.15C119.4 134.8 119.05 135.408 118.55 135.975C118.067 136.525 117.4 136.975 116.55 137.325C115.7 137.675 114.625 137.85 113.325 137.85H110.925V137.35H113.075C114.258 137.35 115.158 137.125 115.775 136.675C116.408 136.225 116.833 135.633 117.05 134.9C117.283 134.167 117.4 133.375 117.4 132.525C117.4 130.942 117.083 129.758 116.45 128.975C115.833 128.192 114.767 127.8 113.25 127.8C112.483 127.8 111.983 127.942 111.75 128.225C111.517 128.508 111.4 129.083 111.4 129.95V142.35C111.4 142.95 111.458 143.4 111.575 143.7C111.708 144 111.958 144.2 112.325 144.3C112.692 144.4 113.225 144.467 113.925 144.5V145C113.492 144.967 112.942 144.95 112.275 144.95C111.608 144.933 110.933 144.925 110.25 144.925C109.6 144.925 108.992 144.933 108.425 144.95C107.858 144.95 107.4 144.967 107.05 145V144.5C107.617 144.467 108.042 144.4 108.325 144.3C108.625 144.2 108.825 144 108.925 143.7C109.025 143.4 109.075 142.95 109.075 142.35V129.95C109.075 129.333 109.025 128.883 108.925 128.6C108.825 128.3 108.625 128.1 108.325 128C108.042 127.883 107.617 127.817 107.05 127.8V127.3ZM127.674 127.175L133.774 142.9C134.024 143.533 134.307 143.958 134.624 144.175C134.94 144.375 135.232 144.483 135.499 144.5V145C135.165 144.967 134.757 144.95 134.274 144.95C133.79 144.933 133.307 144.925 132.824 144.925C132.174 144.925 131.565 144.933 130.999 144.95C130.432 144.95 129.974 144.967 129.624 145V144.5C130.474 144.467 131.015 144.325 131.249 144.075C131.482 143.808 131.432 143.25 131.099 142.4L126.449 129.975L126.849 129.65L122.499 140.95C122.232 141.617 122.074 142.183 122.024 142.65C121.974 143.1 122.015 143.458 122.149 143.725C122.299 143.992 122.54 144.183 122.874 144.3C123.224 144.417 123.657 144.483 124.174 144.5V145C123.707 144.967 123.215 144.95 122.699 144.95C122.199 144.933 121.732 144.925 121.299 144.925C120.882 144.925 120.524 144.933 120.224 144.95C119.94 144.95 119.674 144.967 119.424 145V144.5C119.757 144.417 120.099 144.225 120.449 143.925C120.799 143.608 121.115 143.075 121.399 142.325L127.274 127.175C127.34 127.175 127.407 127.175 127.474 127.175C127.54 127.175 127.607 127.175 127.674 127.175ZM130.724 137.8V138.3H123.274L123.524 137.8H130.724ZM142.282 127.3V127.8C141.716 127.817 141.282 127.883 140.982 128C140.699 128.1 140.507 128.3 140.407 128.6C140.307 128.883 140.257 129.333 140.257 129.95V142.35C140.257 142.95 140.307 143.4 140.407 143.7C140.507 144 140.699 144.2 140.982 144.3C141.282 144.383 141.716 144.425 142.282 144.425H144.107C144.891 144.425 145.524 144.342 146.007 144.175C146.507 144.008 146.899 143.75 147.182 143.4C147.482 143.033 147.707 142.55 147.857 141.95C148.007 141.35 148.124 140.617 148.207 139.75H148.782C148.732 140.267 148.707 140.95 148.707 141.8C148.707 142.117 148.716 142.575 148.732 143.175C148.766 143.758 148.816 144.367 148.882 145C148.032 144.967 147.074 144.95 146.007 144.95C144.941 144.933 143.991 144.925 143.157 144.925C142.791 144.925 142.316 144.925 141.732 144.925C141.166 144.925 140.549 144.933 139.882 144.95C139.216 144.95 138.541 144.958 137.857 144.975C137.174 144.975 136.524 144.983 135.907 145V144.5C136.474 144.467 136.899 144.4 137.182 144.3C137.482 144.2 137.682 144 137.782 143.7C137.882 143.4 137.932 142.95 137.932 142.35V129.95C137.932 129.333 137.882 128.883 137.782 128.6C137.682 128.3 137.482 128.1 137.182 128C136.899 127.883 136.474 127.817 135.907 127.8V127.3C136.257 127.317 136.716 127.333 137.282 127.35C137.849 127.367 138.457 127.375 139.107 127.375C139.691 127.375 140.266 127.367 140.832 127.35C141.416 127.333 141.899 127.317 142.282 127.3ZM170.28 127.3V127.8C169.713 127.817 169.28 127.883 168.98 128C168.696 128.1 168.505 128.3 168.405 128.6C168.305 128.883 168.255 129.333 168.255 129.95V142.35C168.255 142.95 168.305 143.4 168.405 143.7C168.505 144 168.696 144.2 168.98 144.3C169.28 144.4 169.713 144.467 170.28 144.5V145C169.896 144.967 169.413 144.95 168.83 144.95C168.263 144.933 167.688 144.925 167.105 144.925C166.455 144.925 165.846 144.933 165.28 144.95C164.713 144.95 164.255 144.967 163.905 145V144.5C164.471 144.467 164.896 144.4 165.18 144.3C165.48 144.2 165.68 144 165.78 143.7C165.88 143.4 165.93 142.95 165.93 142.35V128.6L166.03 128.675L159.905 145.125H159.505L153.205 128.9V142.1C153.205 142.7 153.255 143.175 153.355 143.525C153.471 143.858 153.688 144.1 154.005 144.25C154.338 144.383 154.83 144.467 155.48 144.5V145C155.18 144.967 154.788 144.95 154.305 144.95C153.821 144.933 153.363 144.925 152.93 144.925C152.513 144.925 152.088 144.933 151.655 144.95C151.238 144.95 150.888 144.967 150.605 145V144.5C151.171 144.467 151.596 144.383 151.88 144.25C152.18 144.1 152.38 143.858 152.48 143.525C152.58 143.175 152.63 142.7 152.63 142.1V129.95C152.63 129.333 152.58 128.883 152.48 128.6C152.38 128.3 152.18 128.1 151.88 128C151.596 127.883 151.171 127.817 150.605 127.8V127.3C150.888 127.317 151.238 127.333 151.655 127.35C152.088 127.367 152.513 127.375 152.93 127.375C153.296 127.375 153.671 127.367 154.055 127.35C154.455 127.333 154.788 127.317 155.055 127.3L160.73 142.25L160.305 142.45L165.93 127.375C166.13 127.375 166.321 127.375 166.505 127.375C166.705 127.375 166.905 127.375 167.105 127.375C167.688 127.375 168.263 127.367 168.83 127.35C169.413 127.333 169.896 127.317 170.28 127.3ZM186.958 126.95C188.041 126.95 188.916 127.117 189.583 127.45C190.249 127.767 190.874 128.142 191.458 128.575C191.674 128.742 191.841 128.825 191.958 128.825C192.274 128.825 192.483 128.317 192.583 127.3H193.158C193.124 127.917 193.099 128.667 193.083 129.55C193.066 130.433 193.058 131.6 193.058 133.05H192.483C192.366 132.35 192.224 131.675 192.058 131.025C191.891 130.375 191.616 129.817 191.233 129.35C190.749 128.733 190.116 128.258 189.333 127.925C188.549 127.575 187.741 127.4 186.908 127.4C186.074 127.4 185.316 127.608 184.633 128.025C183.966 128.425 183.391 129.008 182.908 129.775C182.424 130.542 182.049 131.467 181.783 132.55C181.533 133.617 181.408 134.825 181.408 136.175C181.408 139.175 181.891 141.375 182.858 142.775C183.824 144.158 185.324 144.85 187.358 144.85C187.958 144.85 188.474 144.767 188.908 144.6C189.358 144.417 189.708 144.242 189.958 144.075C190.274 143.858 190.474 143.658 190.558 143.475C190.641 143.275 190.683 143.017 190.683 142.7V140.3C190.683 139.617 190.616 139.108 190.483 138.775C190.349 138.442 190.099 138.217 189.733 138.1C189.383 137.983 188.858 137.917 188.158 137.9V137.4C188.458 137.417 188.808 137.433 189.208 137.45C189.608 137.45 190.024 137.458 190.458 137.475C190.908 137.475 191.316 137.475 191.683 137.475C192.233 137.475 192.724 137.467 193.158 137.45C193.608 137.433 193.983 137.417 194.283 137.4V137.9C193.916 137.917 193.641 137.975 193.458 138.075C193.274 138.175 193.149 138.375 193.083 138.675C193.033 138.975 193.008 139.433 193.008 140.05V145H192.508C192.491 144.717 192.424 144.408 192.308 144.075C192.208 143.742 192.049 143.575 191.833 143.575C191.733 143.575 191.633 143.6 191.533 143.65C191.433 143.7 191.258 143.817 191.008 144C190.458 144.417 189.874 144.75 189.258 145C188.641 145.233 187.924 145.35 187.108 145.35C185.391 145.35 183.916 145 182.683 144.3C181.466 143.583 180.533 142.558 179.883 141.225C179.233 139.892 178.908 138.3 178.908 136.45C178.908 134.5 179.258 132.817 179.958 131.4C180.658 129.983 181.608 128.892 182.808 128.125C184.024 127.342 185.408 126.95 186.958 126.95ZM203.211 127.175L209.311 142.9C209.561 143.533 209.844 143.958 210.161 144.175C210.477 144.375 210.769 144.483 211.036 144.5V145C210.702 144.967 210.294 144.95 209.811 144.95C209.327 144.933 208.844 144.925 208.361 144.925C207.711 144.925 207.102 144.933 206.536 144.95C205.969 144.95 205.511 144.967 205.161 145V144.5C206.011 144.467 206.552 144.325 206.786 144.075C207.019 143.808 206.969 143.25 206.636 142.4L201.986 129.975L202.386 129.65L198.036 140.95C197.769 141.617 197.611 142.183 197.561 142.65C197.511 143.1 197.552 143.458 197.686 143.725C197.836 143.992 198.077 144.183 198.411 144.3C198.761 144.417 199.194 144.483 199.711 144.5V145C199.244 144.967 198.752 144.95 198.236 144.95C197.736 144.933 197.269 144.925 196.836 144.925C196.419 144.925 196.061 144.933 195.761 144.95C195.477 144.95 195.211 144.967 194.961 145V144.5C195.294 144.417 195.636 144.225 195.986 143.925C196.336 143.608 196.652 143.075 196.936 142.325L202.811 127.175C202.877 127.175 202.944 127.175 203.011 127.175C203.077 127.175 203.144 127.175 203.211 127.175ZM206.261 137.8V138.3H198.811L199.061 137.8H206.261ZM224.438 127.3C224.371 127.933 224.321 128.55 224.288 129.15C224.271 129.733 224.263 130.183 224.263 130.5C224.263 130.9 224.271 131.275 224.288 131.625C224.304 131.975 224.321 132.283 224.338 132.55H223.763C223.646 131.383 223.488 130.467 223.288 129.8C223.088 129.117 222.738 128.625 222.238 128.325C221.738 128.025 220.963 127.875 219.913 127.875H218.563V142.1C218.563 142.767 218.621 143.267 218.738 143.6C218.871 143.933 219.121 144.158 219.488 144.275C219.854 144.392 220.388 144.467 221.088 144.5V145C220.654 144.967 220.104 144.95 219.438 144.95C218.771 144.933 218.096 144.925 217.413 144.925C216.663 144.925 215.954 144.933 215.288 144.95C214.638 144.95 214.113 144.967 213.713 145V144.5C214.413 144.467 214.946 144.392 215.313 144.275C215.679 144.158 215.921 143.933 216.038 143.6C216.171 143.267 216.238 142.767 216.238 142.1V127.875H214.888C213.854 127.875 213.079 128.025 212.563 128.325C212.063 128.625 211.713 129.117 211.513 129.8C211.313 130.467 211.154 131.383 211.038 132.55H210.463C210.496 132.283 210.513 131.975 210.513 131.625C210.529 131.275 210.538 130.9 210.538 130.5C210.538 130.183 210.521 129.733 210.488 129.15C210.471 128.55 210.429 127.933 210.363 127.3C211.063 127.317 211.821 127.333 212.638 127.35C213.471 127.367 214.304 127.375 215.138 127.375C215.971 127.375 216.729 127.375 217.413 127.375C218.096 127.375 218.846 127.375 219.663 127.375C220.496 127.375 221.329 127.367 222.163 127.35C222.996 127.333 223.754 127.317 224.438 127.3ZM238.69 127.3C238.623 127.883 238.573 128.45 238.54 129C238.523 129.55 238.515 129.967 238.515 130.25C238.515 130.55 238.523 130.842 238.54 131.125C238.557 131.392 238.573 131.617 238.59 131.8H238.015C237.915 130.817 237.773 130.042 237.59 129.475C237.407 128.892 237.09 128.483 236.64 128.25C236.207 128 235.548 127.875 234.665 127.875H232.59C232.023 127.875 231.59 127.925 231.29 128.025C231.007 128.108 230.815 128.3 230.715 128.6C230.615 128.883 230.565 129.333 230.565 129.95V142.35C230.565 142.95 230.615 143.4 230.715 143.7C230.815 144 231.007 144.2 231.29 144.3C231.59 144.383 232.023 144.425 232.59 144.425H234.415C235.465 144.425 236.257 144.283 236.79 144C237.34 143.717 237.732 143.258 237.965 142.625C238.215 141.975 238.398 141.1 238.515 140H239.09C239.04 140.45 239.015 141.05 239.015 141.8C239.015 142.117 239.023 142.575 239.04 143.175C239.073 143.758 239.123 144.367 239.19 145C238.34 144.967 237.382 144.95 236.315 144.95C235.248 144.933 234.298 144.925 233.465 144.925C233.098 144.925 232.623 144.925 232.04 144.925C231.473 144.925 230.857 144.933 230.19 144.95C229.523 144.95 228.848 144.958 228.165 144.975C227.482 144.975 226.832 144.983 226.215 145V144.5C226.782 144.467 227.207 144.4 227.49 144.3C227.79 144.2 227.99 144 228.09 143.7C228.19 143.4 228.24 142.95 228.24 142.35V129.95C228.24 129.333 228.19 128.883 228.09 128.6C227.99 128.3 227.79 128.1 227.49 128C227.207 127.883 226.782 127.817 226.215 127.8V127.3C226.832 127.317 227.482 127.333 228.165 127.35C228.848 127.35 229.523 127.358 230.19 127.375C230.857 127.375 231.473 127.375 232.04 127.375C232.623 127.375 233.098 127.375 233.465 127.375C234.232 127.375 235.098 127.375 236.065 127.375C237.048 127.358 237.923 127.333 238.69 127.3ZM234.39 135.85C234.39 135.85 234.39 135.933 234.39 136.1C234.39 136.267 234.39 136.35 234.39 136.35H229.815C229.815 136.35 229.815 136.267 229.815 136.1C229.815 135.933 229.815 135.85 229.815 135.85H234.39ZM235.115 132.55C235.048 133.5 235.015 134.225 235.015 134.725C235.032 135.225 235.04 135.683 235.04 136.1C235.04 136.517 235.048 136.975 235.065 137.475C235.082 137.975 235.123 138.7 235.19 139.65H234.615C234.548 139.117 234.465 138.6 234.365 138.1C234.282 137.583 234.082 137.167 233.765 136.85C233.465 136.517 232.948 136.35 232.215 136.35V135.85C232.765 135.85 233.182 135.742 233.465 135.525C233.765 135.292 233.982 135 234.115 134.65C234.248 134.3 234.34 133.942 234.39 133.575C234.44 133.192 234.49 132.85 234.54 132.55H235.115ZM263.074 127.3V127.8C262.758 127.867 262.408 128.058 262.024 128.375C261.641 128.675 261.333 129.208 261.099 129.975L256.374 145.125C256.341 145.125 256.308 145.125 256.274 145.125C256.241 145.125 256.208 145.125 256.174 145.125C256.141 145.125 256.108 145.125 256.074 145.125C256.041 145.125 256.008 145.125 255.974 145.125L250.674 129.4C250.458 128.75 250.216 128.325 249.949 128.125C249.683 127.925 249.433 127.817 249.199 127.8V127.3C249.499 127.317 249.874 127.333 250.324 127.35C250.774 127.367 251.208 127.375 251.624 127.375C252.274 127.375 252.883 127.367 253.449 127.35C254.016 127.333 254.474 127.317 254.824 127.3V127.8C254.324 127.817 253.924 127.867 253.624 127.95C253.341 128.033 253.174 128.217 253.124 128.5C253.091 128.783 253.174 129.25 253.374 129.9L257.099 141.425L256.749 141.725L260.049 131.35C260.349 130.433 260.483 129.725 260.449 129.225C260.433 128.708 260.249 128.35 259.899 128.15C259.549 127.933 259.024 127.817 258.324 127.8V127.3C258.808 127.317 259.299 127.333 259.799 127.35C260.299 127.367 260.766 127.375 261.199 127.375C261.633 127.375 261.991 127.367 262.274 127.35C262.558 127.333 262.824 127.317 263.074 127.3ZM245.599 127.3V127.8C245.166 127.833 244.849 127.917 244.649 128.05C244.466 128.183 244.374 128.4 244.374 128.7C244.391 128.983 244.483 129.383 244.649 129.9L248.524 141.725L247.899 142.35L251.399 131.175L251.774 131.775L247.649 145.125C247.616 145.125 247.583 145.125 247.549 145.125C247.516 145.125 247.483 145.125 247.449 145.125C247.416 145.125 247.383 145.125 247.349 145.125C247.316 145.125 247.283 145.125 247.249 145.125L241.949 129.4C241.733 128.75 241.458 128.325 241.124 128.125C240.791 127.925 240.491 127.817 240.224 127.8V127.3C240.558 127.317 240.966 127.333 241.449 127.35C241.949 127.367 242.433 127.375 242.899 127.375C243.449 127.375 243.958 127.367 244.424 127.35C244.908 127.333 245.299 127.317 245.599 127.3ZM269.69 127.175L275.79 142.9C276.04 143.533 276.324 143.958 276.64 144.175C276.957 144.375 277.249 144.483 277.515 144.5V145C277.182 144.967 276.774 144.95 276.29 144.95C275.807 144.933 275.324 144.925 274.84 144.925C274.19 144.925 273.582 144.933 273.015 144.95C272.449 144.95 271.99 144.967 271.64 145V144.5C272.49 144.467 273.032 144.325 273.265 144.075C273.499 143.808 273.449 143.25 273.115 142.4L268.465 129.975L268.865 129.65L264.515 140.95C264.249 141.617 264.09 142.183 264.04 142.65C263.99 143.1 264.032 143.458 264.165 143.725C264.315 143.992 264.557 144.183 264.89 144.3C265.24 144.417 265.674 144.483 266.19 144.5V145C265.724 144.967 265.232 144.95 264.715 144.95C264.215 144.933 263.749 144.925 263.315 144.925C262.899 144.925 262.54 144.933 262.24 144.95C261.957 144.95 261.69 144.967 261.44 145V144.5C261.774 144.417 262.115 144.225 262.465 143.925C262.815 143.608 263.132 143.075 263.415 142.325L269.29 127.175C269.357 127.175 269.424 127.175 269.49 127.175C269.557 127.175 269.624 127.175 269.69 127.175ZM272.74 137.8V138.3H265.29L265.54 137.8H272.74ZM290.817 127.3V127.8C290.501 127.867 290.184 128.075 289.867 128.425C289.551 128.758 289.201 129.292 288.817 130.025L283.767 140.025H283.342L277.492 129.225C277.159 128.608 276.876 128.225 276.642 128.075C276.426 127.908 276.226 127.825 276.042 127.825V127.3C276.376 127.317 276.717 127.333 277.067 127.35C277.434 127.367 277.826 127.375 278.242 127.375C278.792 127.375 279.376 127.375 279.992 127.375C280.626 127.358 281.209 127.333 281.742 127.3V127.825C281.326 127.825 280.959 127.875 280.642 127.975C280.326 128.075 280.117 128.258 280.017 128.525C279.917 128.792 279.992 129.167 280.242 129.65L284.467 137.75L284.267 137.9L287.592 131.275C288.059 130.358 288.284 129.65 288.267 129.15C288.267 128.65 288.076 128.308 287.692 128.125C287.309 127.925 286.767 127.817 286.067 127.8V127.3C286.551 127.317 287.042 127.333 287.542 127.35C288.042 127.367 288.509 127.375 288.942 127.375C289.376 127.375 289.734 127.367 290.017 127.35C290.301 127.333 290.567 127.317 290.817 127.3ZM284.892 137.4V142.35C284.892 142.95 284.942 143.4 285.042 143.7C285.142 144 285.334 144.2 285.617 144.3C285.917 144.4 286.351 144.467 286.917 144.5V145C286.534 144.967 286.051 144.95 285.467 144.95C284.901 144.933 284.326 144.925 283.742 144.925C283.092 144.925 282.484 144.933 281.917 144.95C281.351 144.95 280.892 144.967 280.542 145V144.5C281.109 144.467 281.534 144.4 281.817 144.3C282.117 144.2 282.317 144 282.417 143.7C282.517 143.4 282.567 142.95 282.567 142.35V137.225L283.917 138.775L284.892 137.4Z" fill="white"/>
</svg>
